<?xml version="1.0" encoding="utf-8"?>
<!-- Generator: Adobe Illustrator 22.0.1, SVG Export Plug-In . SVG Version: 6.00 Build 0)  -->
<svg version="1.1" id="Layer_1" xmlns="http://www.w3.org/2000/svg" xmlns:xlink="http://www.w3.org/1999/xlink" x="0px" y="0px"
	 viewBox="0 0 100 83.6" style="enable-background:new 0 0 100 83.6;" xml:space="preserve">
<style type="text/css">
	.st0{fill:#000000;}
</style>
<path class="st0" d="M99,34c1.3-1.3,1.4-3.4,0.1-4.8c-1.3-1.3-3.4-1.4-4.8-0.1l-7.7,7.3V26.3c0-1.9-1.5-3.4-3.4-3.4
	c-1.9,0-3.4,1.5-3.4,3.4v0.4h0l0,20.4c0,12.2-7.5,22.8-18.1,27.3v-9.9l13.1-12.5c1.3-1.3,1.4-3.4,0.1-4.8c-1.3-1.3-3.4-1.4-4.8-0.1
	l-8.4,8.1v-8.4l13.1-12.5c1.3-1.3,1.4-3.4,0.1-4.8c-1.3-1.3-3.4-1.4-4.8-0.1l-8.4,8.1v-8.5l13.1-12.5c1.3-1.3,1.4-3.4,0.1-4.8
	c-1.3-1.3-3.4-1.4-4.8-0.1l-8.4,8.1V3.4c0-1.9-1.5-3.4-3.4-3.4C56.5,0,55,1.5,55,3.4v73.1c-1.6,0.3-3.3,0.5-5,0.5c0,0,0,0,0,0
	c-1.7,0-3.4-0.2-5-0.4V3.4C45,1.5,43.5,0,41.6,0c-1.9,0-3.4,1.5-3.4,3.4v16.5l-8.4-8.1c-1.3-1.3-3.5-1.2-4.8,0.1
	c-1.3,1.3-1.2,3.5,0.1,4.8l13.1,12.5v8.5l-8.4-8.1c-1.3-1.3-3.5-1.2-4.8,0.1c-1.3,1.3-1.2,3.5,0.1,4.8l13.1,12.5v8.4l-8.4-8.1
	C28.5,46,26.3,46,25,47.3c-1.3,1.3-1.2,3.5,0.1,4.8l13.1,12.5v9.9c-3.5-1.5-6.6-3.6-9.4-6.3c-5.6-5.6-8.7-13.1-8.7-21l0-20.4h0v-0.4
	c0-1.9-1.5-3.4-3.4-3.4c-1.9,0-3.4,1.5-3.4,3.4v10.1l-7.7-7.3c-1.3-1.3-3.5-1.2-4.8,0.1C-0.4,30.5-0.3,32.7,1,34l11.5,10.9
	c0.3,0.3,0.6,0.4,0.9,0.6l0,1.7c0,1.8,0.2,3.6,0.4,5.3L10.1,49c-1.4-1.3-3.5-1.2-4.8,0.2c-1.3,1.4-1.2,3.5,0.2,4.8L19,66.4
	c1.5,2.3,3.2,4.5,5.2,6.5C31,79.8,40.2,83.6,50,83.6h0c13.4,0,25.1-7.2,31.5-17.9l13.1-11.8c1.4-1.2,1.5-3.4,0.3-4.7
	c-1.2-1.4-3.4-1.5-4.7-0.3l-3.9,3.5c0.3-1.7,0.4-3.5,0.4-5.3l0-1.7c0.3-0.1,0.6-0.3,0.9-0.6L99,34z"/>
</svg>
