<?xml version="1.0" encoding="iso-8859-1"?>
<!-- Generator: Adobe Illustrator 19.0.0, SVG Export Plug-In . SVG Version: 6.00 Build 0)  -->
<svg version="1.1" id="Capa_1" xmlns="http://www.w3.org/2000/svg" xmlns:xlink="http://www.w3.org/1999/xlink" x="0px" y="0px"
	 viewBox="0 0 512 512" style="enable-background:new 0 0 512 512;" xml:space="preserve">
<g>
	<g>
		<path d="M508.473,215.411c-0.654-4.089-4.503-6.866-8.586-6.219c-4.089,0.655-6.872,4.499-6.219,8.587
			c5.508,34.425,3.344,69.217-5.684,102.046l-68.694,22.47c-3.415,1.117-6.553,3.027-9.249,5.469l-70.446-41.072
			c0.094-1.064,0.105-2.147,0.011-3.24c-9.773-113.353-8.89-106.79-10.251-110.328l60.726-60.727
			c6.183,3.596,2.888,2.467,79.501,12.539c8.145,15.641,14.574,32.169,19.101,49.291c1.059,4.003,5.167,6.39,9.163,5.331
			c4.003-1.059,6.39-5.161,5.331-9.163C459.163,23.937,264.753-52.675,119.204,39.605C-74.293,162.286-20.61,455.51,198.836,505.568
			C373.391,545.094,537.497,396.791,508.473,215.411z M460.245,128.588l-58.689-7.715c-4.966-0.652-9.894-5.581-10.549-10.548
			l-7.719-58.719C413.942,70.748,440.528,97.017,460.245,128.588z M366.931,42.207c10.085,76.714,8.955,73.407,12.55,79.589
			l-60.726,60.727c-3.302-1.269-2.816-0.982-32.097-3.506c-4.141-0.347-7.758,2.7-8.113,6.825c-0.355,4.125,2.7,7.757,6.825,8.113
			l27.023,2.33c1.708,0.146,3.055,1.494,3.202,3.202l9.074,105.254c0.132,1.52-0.726,2.943-2.13,3.539l-86.996,36.902
			c-1.325,0.564-2.839,0.268-3.857-0.751l-64.238-64.238c-1.018-1.019-1.313-2.534-0.751-3.86l36.903-86.992
			c0.597-1.405,2.022-2.255,3.538-2.132l52.988,4.569c4.138,0.354,7.758-2.701,8.113-6.825c0.355-4.125-2.7-7.757-6.825-8.113
			c-57.929-4.994-53.918-4.76-56.227-4.555l-41.072-70.444c2.443-2.698,4.353-5.836,5.469-9.252l22.552-68.944
			C248.3,8.348,311.385,13.266,366.931,42.207z M174.525,29.266l-19.189,58.663c-1.557,4.761-7.31,8.72-12.312,8.421l-64.32-3.519
			C105.467,63.845,138.389,42.227,174.525,29.266z M66.444,107.175l75.758,4.145c0.432,0.024,0.861,0.036,1.292,0.036
			c2.717,0,5.43-0.475,8.039-1.33l40.538,69.53c-1.96,2.6,0.641-2.938-39.107,90.762l-73.567,10.651
			c-1.273-2.378-2.875-4.561-4.818-6.403l-57.027-54.084C23.599,179.385,40.138,140.507,66.444,107.175z M15.552,239.244
			l48.713,46.199c3.634,3.445,4.725,10.331,2.335,14.733L36.46,355.68C19.384,318.169,12.811,278.019,15.552,239.244z
			 M44.631,372.049l35.145-64.719c1.931-3.557,2.903-7.603,3.024-11.706l70.319-10.18c1.937,4.19-1.925-0.304,67.967,69.59
			c1.584,1.584,3.404,2.816,5.35,3.716l-10.305,71.169c-3.782,0.235-7.486,1.21-10.774,2.995l-64.289,34.913
			C100.719,445.985,66.997,412.634,44.631,372.049z M157.542,475.94l54.971-29.853c4.402-2.389,11.285-1.297,14.733,2.338
			l45.33,47.795C233.512,498.918,193.917,492.151,157.542,475.94z M291.315,494.19l-53.19-56.081
			c-2.065-2.177-4.548-3.94-7.266-5.274l10.703-73.919l86.836-36.835c1.423-0.605,2.738-1.373,3.93-2.272l69.538,40.542
			c-0.992,3.021-1.476,6.183-1.304,9.327l4.144,75.728C371.717,471.377,332.705,488.077,291.315,494.19z M419.05,433.171
			l-3.518-64.313c-0.275-5.002,3.66-10.757,8.421-12.315l58.489-19.131C469.394,373.79,447.939,406.524,419.05,433.171z"/>
	</g>
</g>
<g>
</g>
<g>
</g>
<g>
</g>
<g>
</g>
<g>
</g>
<g>
</g>
<g>
</g>
<g>
</g>
<g>
</g>
<g>
</g>
<g>
</g>
<g>
</g>
<g>
</g>
<g>
</g>
<g>
</g>
</svg>
