<?xml version="1.0" encoding="iso-8859-1"?>
<!-- Generator: Adobe Illustrator 19.0.0, SVG Export Plug-In . SVG Version: 6.00 Build 0)  -->
<svg version="1.1" id="Layer_1" xmlns="http://www.w3.org/2000/svg" xmlns:xlink="http://www.w3.org/1999/xlink" x="0px" y="0px"
	 viewBox="0 0 512.004 512.004" style="enable-background:new 0 0 512.004 512.004;" xml:space="preserve">
<g>
	<g>
		<path d="M509.447,400.601c-3.285-3.134-8.494-3.008-11.628,0.282c-9.299,9.762-21.848,15.139-35.335,15.139
			c-13.488,0-26.035-5.376-35.335-15.139c-1.552-1.63-3.706-2.553-5.958-2.553s-4.405,0.923-5.958,2.553
			c-9.299,9.762-21.851,15.139-35.346,15.139c-13.478,0-26.028-5.377-35.338-15.141c-1.552-1.629-3.705-2.551-5.955-2.551
			s-4.403,0.922-5.955,2.551c-9.31,9.764-21.86,15.141-35.338,15.141c-13.494,0-26.046-5.376-35.346-15.139
			c-1.552-1.63-3.706-2.553-5.958-2.553c-2.252,0-4.405,0.923-5.958,2.553c-9.299,9.762-21.848,15.139-35.335,15.139
			c-13.488,0-26.036-5.376-35.335-15.139c-1.552-1.63-3.706-2.553-5.958-2.553c-2.252,0-4.405,0.923-5.958,2.553
			c-9.299,9.762-21.848,15.139-35.335,15.139s-26.036-5.376-35.335-15.139c-1.554-1.63-3.706-2.553-5.958-2.553
			c-2.252,0-4.406,0.923-5.958,2.553c-9.299,9.762-21.851,15.139-35.346,15.139c-13.478,0-26.028-5.377-35.338-15.141
			c-3.133-3.289-8.342-3.412-11.634-0.278c-3.288,3.136-3.412,8.345-0.276,11.634c12.446,13.053,29.225,20.243,47.247,20.243
			c15.301,0,29.698-5.171,41.303-14.706c11.605,9.535,25.998,14.706,41.293,14.706s29.688-5.171,41.293-14.706
			c11.604,9.535,25.997,14.706,41.293,14.706c15.294,0,29.688-5.171,41.293-14.706c11.605,9.535,26.002,14.706,41.303,14.706
			c15.287,0,29.681-5.173,41.293-14.709c11.612,9.536,26.006,14.709,41.293,14.709c15.3,0,29.697-5.171,41.303-14.706
			c11.604,9.535,25.997,14.706,41.293,14.706c18.034,0,34.815-7.189,47.25-20.245C512.863,408.945,512.737,403.736,509.447,400.601z
			"/>
	</g>
</g>
<g>
	<g>
		<path d="M509.451,337.391c-3.29-3.133-8.498-3.007-11.634,0.283c-9.299,9.762-21.848,15.139-35.335,15.139
			c-13.488,0-26.035-5.376-35.335-15.139c-1.552-1.63-3.706-2.553-5.958-2.553s-4.405,0.923-5.958,2.553
			c-4.628,4.859-10.063,8.629-16.017,11.193c6.323-9.376,11.742-19.383,16.171-29.94c3.505-8.358,6.32-16.886,8.466-25.514
			c11.11,8.209,24.478,12.644,38.626,12.644c18.04,0,34.821-7.187,47.254-20.238c3.133-3.29,3.007-8.499-0.283-11.634
			c-3.29-3.133-8.498-3.007-11.634,0.283c-9.296,9.758-21.845,15.131-35.338,15.131c-13.359,0-25.792-5.28-35.06-14.866
			c3.954-29.519,0.162-59.678-11.404-87.961c-17.446-42.661-50.493-75.986-93.052-93.837l-0.226-0.092
			c-0.061-0.025-0.123-0.05-0.185-0.076c-0.441-0.189-0.884-0.368-1.325-0.536c-44.536-18.138-95.025-16.806-138.542,3.654
			c-38.698,18.19-69.135,49.967-85.701,89.477c-11.904,28.379-15.948,59.062-12.044,89.046c-0.021,0.021-0.043,0.039-0.064,0.06
			c-9.295,9.758-21.848,15.131-35.348,15.131c-13.483,0-26.034-5.375-35.341-15.135c-3.133-3.288-8.342-3.412-11.634-0.276
			c-3.289,3.136-3.412,8.345-0.276,11.634c12.445,13.047,29.226,20.233,47.255,20.233c14.281,0,27.768-4.507,38.936-12.852
			c1.319,5.375,2.894,10.707,4.741,15.975c4.977,14.221,11.692,27.562,20.038,39.868c-6.125-2.566-11.714-6.396-16.456-11.374
			c-1.554-1.63-3.706-2.553-5.958-2.553c-2.252,0-4.406,0.923-5.958,2.553c-9.299,9.762-21.851,15.139-35.346,15.139
			c-13.478,0-26.028-5.377-35.338-15.141c-3.133-3.288-8.342-3.413-11.634-0.278c-3.288,3.135-3.412,8.345-0.276,11.634
			c12.446,13.053,29.225,20.243,47.247,20.243c15.301,0,29.698-5.171,41.303-14.706c11.605,9.535,25.998,14.706,41.293,14.706
			s29.688-5.171,41.293-14.706c11.604,9.535,25.997,14.706,41.293,14.706c15.294,0,29.688-5.171,41.293-14.706
			c11.605,9.535,26.002,14.706,41.303,14.706c15.287,0,29.681-5.173,41.293-14.709c11.612,9.536,26.006,14.709,41.293,14.709
			c15.3,0,29.697-5.171,41.303-14.706c11.604,9.535,25.997,14.706,41.293,14.706c18.034,0,34.815-7.189,47.25-20.245
			C512.867,345.735,512.741,340.526,509.451,337.391z M403.195,304.891l-53.256-22.339c8.144-20.995,13.882-42.631,16.793-63.346
			c13.443-2.005,26.693-5.591,39.448-10.769C415.465,240.109,414.466,273.604,403.195,304.891z M400.733,192.882
			c-10.442,4.302-21.252,7.435-32.235,9.381c0.615-9.181,0.654-18.094,0.097-26.599c-0.975-14.887-3.763-28.304-8.139-39.921
			C377.852,151.289,391.633,170.682,400.733,192.882z M323.515,111.908c16.338,11.026,26.643,34.077,28.656,64.833
			c0.574,8.743,0.453,17.989-0.33,27.555c-21.361,1.46-42.974-1.45-63.402-8.774L323.515,111.908z M183.247,212.628
			c8.113-17.893,17.946-34.742,28.886-49.499c15.211,17.125,33.794,31.211,54.762,41.214l-15.473,36.884L183.247,212.628z
			 M245.057,256.402l-15.473,36.883c-21.725-7.912-44.83-11.419-67.767-10.261c2.86-18.111,7.987-36.906,15.063-55.221
			L245.057,256.402z M282.068,210.713c19.063,6.943,39.075,10.407,59.077,10.407c2.902,0,5.803-0.081,8.7-0.227
			c-2.866,18.123-8,36.943-15.085,55.29l-68.162-28.591L282.068,210.713z M308.335,105.556l-35.069,83.601
			c-19.537-9.443-36.758-22.821-50.685-39.081c6.284-7.268,12.796-13.833,19.421-19.544
			C265.288,110.469,288.985,101.637,308.335,105.556z M264.441,96.2c-10.959,5.019-22.105,12.321-33.183,21.867
			c-6.447,5.557-12.776,11.83-18.9,18.706c-6.207-9.05-11.48-18.784-15.695-29.059C218.233,98.836,241.434,94.983,264.441,96.2z
			 M181.779,114.784c5.21,12.515,11.847,24.294,19.717,35.126c-12.756,16.61-24.172,35.859-33.428,56.351l-52.523-22.032
			C129.816,154.626,152.94,130.388,181.779,114.784z M109.181,199.404l52.521,22.032c-8.136,20.961-13.864,42.575-16.77,63.281
			c-13.327,2-26.347,5.549-38.875,10.586C96.984,263.806,98.07,230.33,109.181,199.404z M136.534,352.607
			c-10.533-12.533-18.953-26.528-25.104-41.726c10.251-4.183,20.868-7.263,31.732-9.198c-0.618,9.192-0.657,18.113-0.098,26.628
			c0.521,7.886,1.544,15.415,3.048,22.475C143.014,351.705,139.812,352.318,136.534,352.607z M205.012,351.857
			c-9.737-1.942-18.617-6.809-25.642-14.183c-1.551-1.63-3.705-2.553-5.956-2.553c-2.252,0-4.405,0.923-5.958,2.553
			c-1.895,1.989-3.93,3.786-6.075,5.402c-0.892-5.038-1.532-10.331-1.897-15.847c-0.574-8.748-0.453-18.006,0.335-27.589
			c21.407-1.476,43.056,1.543,63.392,8.835L205.012,351.857z M261.958,337.673c-1.552-1.63-3.706-2.553-5.958-2.553
			c-2.252,0-4.405,0.923-5.958,2.553c-7.422,7.793-16.919,12.779-27.306,14.48l15.652-37.314
			c18.611,8.991,35.292,21.585,48.937,36.964C277.692,349.824,268.914,344.977,261.958,337.673z M244.759,299.65l15.471-36.883
			l68.164,28.594c-8.107,17.882-17.922,34.711-28.832,49.44C284.301,323.622,265.612,309.595,244.759,299.65z M375.784,352.631
			c-11.906-0.979-22.877-6.194-31.235-14.959c-1.551-1.63-3.704-2.552-5.954-2.552s-4.403,0.922-5.955,2.551
			c-5.54,5.809-12.232,10.052-19.578,12.548c11.576-15.694,21.962-33.555,30.513-52.49l53.233,22.331
			C391.151,331.804,384.103,342.718,375.784,352.631z"/>
	</g>
</g>
<g>
</g>
<g>
</g>
<g>
</g>
<g>
</g>
<g>
</g>
<g>
</g>
<g>
</g>
<g>
</g>
<g>
</g>
<g>
</g>
<g>
</g>
<g>
</g>
<g>
</g>
<g>
</g>
<g>
</g>
</svg>
