<?xml version="1.0" encoding="iso-8859-1"?>
<!-- Generator: Adobe Illustrator 19.0.0, SVG Export Plug-In . SVG Version: 6.00 Build 0)  -->
<svg version="1.1" id="Layer_1" xmlns="http://www.w3.org/2000/svg" xmlns:xlink="http://www.w3.org/1999/xlink" x="0px" y="0px"
	 viewBox="0 0 511.998 511.998" style="enable-background:new 0 0 511.998 511.998;" xml:space="preserve">
<g>
	<g>
		<path d="M486.388,496.792h-75.502l16.975-50.359c6.939-20.584,9.127-42.852,6.329-64.393c-2.797-21.542-10.602-42.511-22.57-60.64
			l-2.931-4.44l12.37-36.7c9.736-28.883,5.689-60.037-11.103-85.476l-1.268-1.921l19.171-56.875
			c6.939-20.584,9.127-42.852,6.329-64.393s-10.603-42.51-22.57-60.639l-4.976-7.54c-1.602-2.426-4.454-3.727-7.326-3.352
			c-2.882,0.374-5.298,2.358-6.227,5.112l-20.357,60.393c-3.235,9.6-5.457,19.563-6.602,29.613
			c-0.476,4.173,2.521,7.941,6.696,8.416c4.155,0.484,7.941-2.52,8.416-6.695c1.023-8.984,3.009-17.893,5.903-26.477l15.314-45.434
			c18.964,32.168,23.009,70.478,10.988,106.139l-15.312,45.426c-9.458-16.109-15.356-34.251-17.136-52.864
			c-0.4-4.181-4.121-7.246-8.294-6.845c-4.18,0.4-7.245,4.113-6.845,8.293c2.229,23.296,10.222,45.93,23.113,65.459l2.931,4.441
			l-12.37,36.7c-9.736,28.883-5.689,60.038,11.102,85.476c0.001,0,0.001,0,0.001,0l1.268,1.921l-19.171,56.875
			c-6.938,20.584-9.126,42.852-6.328,64.393c2.583,19.879,9.437,39.265,19.883,56.386h-69.65l16.975-50.359
			c6.939-20.584,9.127-42.852,6.329-64.393c-2.798-21.542-10.602-42.51-22.569-60.64h-0.001l-2.931-4.44l12.773-37.891
			c10.001-29.673,5.845-61.678-11.405-87.812c-0.001,0-0.001,0-0.001,0l-1.367-2.07l12.37-36.7
			c9.736-28.884,5.689-60.039-11.102-85.476l-3.314-5.021c-1.601-2.426-4.45-3.729-7.326-3.352
			c-2.882,0.374-5.298,2.358-6.227,5.112l-13.556,40.218c-9.736,28.883-5.69,60.037,11.102,85.476l1.268,1.921l-12.773,37.891
			c-10.002,29.673-5.845,61.678,11.406,87.812l1.367,2.07l-19.171,56.875c-6.939,20.584-9.127,42.852-6.329,64.393
			c2.581,19.879,9.436,39.265,19.882,56.387h-49.807l16.975-50.359c6.938-20.585,9.127-42.852,6.328-64.393
			c-2.798-21.542-10.603-42.51-22.571-60.64l-2.931-4.44l19.171-56.875c6.939-20.584,9.127-42.851,6.329-64.393
			c-2.798-21.542-10.603-42.51-22.571-60.64l-2.931-4.44L252.4,93.912c9.736-28.884,5.688-60.038-11.104-85.476l-3.313-5.021
			c-1.601-2.426-4.453-3.727-7.326-3.352c-2.881,0.374-5.298,2.358-6.227,5.112l-13.556,40.218
			c-9.736,28.883-5.689,60.037,11.102,85.475l1.268,1.922l-19.17,56.875c-6.939,20.584-9.127,42.852-6.328,64.393
			c2.798,21.542,10.603,42.51,22.57,60.639l2.931,4.441l-19.17,56.875c-6.939,20.584-9.127,42.851-6.328,64.393
			c2.581,19.879,9.436,39.265,19.882,56.386H111.092l16.975-50.359c4.789-14.208,7.317-29.01,7.514-43.992
			c0.056-4.199-3.304-7.648-7.503-7.703c-0.034,0-0.068,0-0.102,0c-4.153,0-7.546,3.339-7.601,7.504
			c-0.176,13.396-2.436,26.63-6.72,39.335L98.34,487.008c-18.964-32.168-23.009-70.478-10.987-106.139l15.313-45.432
			c7.384,12.541,12.535,26.134,15.339,40.496c0.805,4.121,4.8,6.81,8.92,6.007c4.121-0.805,6.811-4.799,6.007-8.92
			c-3.612-18.51-10.714-35.879-21.106-51.622l-2.931-4.44l12.773-37.891c10.001-29.673,5.845-61.678-11.405-87.812
			c-0.001,0-0.001,0-0.001,0l-3.413-5.17c-1.601-2.426-4.451-3.727-7.325-3.352c-2.882,0.374-5.298,2.358-6.227,5.112
			l-13.959,41.409c-10.002,29.673-5.845,61.678,11.406,87.811l1.367,2.07l-19.17,56.874c-6.939,20.584-9.128,42.852-6.33,64.394
			c2.582,19.879,9.437,39.265,19.882,56.386H25.61c-4.2,0-7.604,3.405-7.604,7.604s3.404,7.604,7.604,7.604h460.778
			c4.2,0,7.604-3.405,7.604-7.604S490.588,496.792,486.388,496.792z M93.751,234.114l8.762-25.992
			c10.399,20.428,12.184,44.019,4.744,66.09l-8.762,25.991C88.095,279.774,86.311,256.184,93.751,234.114z M225.292,50.251
			l8.342-24.749c9.864,19.68,11.51,42.341,4.361,63.552l-8.343,24.749C219.788,94.123,218.142,71.462,225.292,50.251z
			 M218.492,194.522l15.313-45.434c18.968,32.169,23.011,70.477,10.989,106.139l-15.314,45.434
			C210.515,268.494,206.471,230.183,218.492,194.522z M218.493,380.87l15.313-45.435c18.964,32.167,23.009,70.478,10.989,106.139
			l-15.314,45.434C210.513,454.841,206.471,416.534,218.493,380.87z M299.698,108.826l8.342-24.749
			c9.864,19.68,11.509,42.341,4.36,63.552l-8.343,24.749C294.192,152.698,292.548,130.038,299.698,108.826z M299.297,234.114
			l8.762-25.992c10.399,20.428,12.184,44.019,4.744,66.09l-8.762,25.992C293.642,279.775,291.857,256.183,299.297,234.114z
			 M292.897,380.87l15.315-45.435c18.967,32.169,23.01,70.477,10.988,106.139l-15.314,45.434
			C284.918,454.841,280.876,416.534,292.897,380.87z M393.945,236.599l8.343-24.749c9.865,19.681,11.51,42.341,4.36,63.553
			l-8.343,24.75C388.44,280.47,386.794,257.811,393.945,236.599z M387.145,380.87l15.314-45.435
			c18.967,32.168,23.01,70.476,10.988,106.139l-15.313,45.434C379.17,454.843,375.126,416.532,387.145,380.87z"/>
	</g>
</g>
<g>
</g>
<g>
</g>
<g>
</g>
<g>
</g>
<g>
</g>
<g>
</g>
<g>
</g>
<g>
</g>
<g>
</g>
<g>
</g>
<g>
</g>
<g>
</g>
<g>
</g>
<g>
</g>
<g>
</g>
</svg>
