<?xml version="1.0" encoding="iso-8859-1"?>
<!-- Generator: Adobe Illustrator 19.0.0, SVG Export Plug-In . SVG Version: 6.00 Build 0)  -->
<svg version="1.1" id="Capa_1" xmlns="http://www.w3.org/2000/svg" xmlns:xlink="http://www.w3.org/1999/xlink" x="0px" y="0px"
	 viewBox="0 0 490 490" style="enable-background:new 0 0 490 490;" xml:space="preserve">
<path id="XMLID_949_" d="M475,162.5c-16.542,0-30,13.458-30,30c0,11.082,6.039,20.779,15,25.974V237.5c0,24.813-20.187,45-45,45h-35
	v-32.58c17.459-6.192,30-22.865,30-42.42v-70c0-68.925-56.075-125-125-125c-24.813,0-45,20.187-45,45s20.187,45,45,45
	c19.299,0,35,15.701,35,35v70c0,19.555,12.541,36.228,30,42.42v47.58c0,24.813-20.187,45-45,45h-45v-32.58
	c17.459-6.192,30-22.865,30-42.42v-70c0-68.925-56.075-125-125-125c-24.813,0-45,20.187-45,45s20.187,45,45,45
	c19.299,0,35,15.701,35,35v70c0,19.555,12.541,36.228,30,42.42v47.58c0,24.813-20.187,45-45,45h-45v-32.58
	c17.459-6.192,30-22.865,30-42.42v-70c0-68.925-56.075-125-125-125c-24.813,0-45,20.187-45,45s20.187,45,45,45
	c19.299,0,35,15.701,35,35v70c0,19.555,12.541,36.228,30,42.42V477.5h30v-45h45c36.219,0,66.522-25.808,73.491-60H305
	c36.219,0,66.522-25.808,73.491-60H415c41.355,0,75-33.645,75-75v-75H475z M45,192.5c-8.271,0-15-6.729-15-15s6.729-15,15-15
	c52.383,0,95,42.617,95,95v27.58c-4.695-1.665-9.742-2.58-15-2.58s-10.305,0.915-15,2.58V257.5C110,221.659,80.841,192.5,45,192.5z
	 M125,312.5c8.271,0,15,6.729,15,15s-6.729,15-15,15s-15-6.729-15-15S116.729,312.5,125,312.5z M165,132.5c-8.271,0-15-6.729-15-15
	s6.729-15,15-15c52.383,0,95,42.617,95,95v27.58c-4.695-1.665-9.742-2.58-15-2.58s-10.305,0.915-15,2.58V197.5
	C230,161.659,200.841,132.5,165,132.5z M245,252.5c8.271,0,15,6.729,15,15s-6.729,15-15,15s-15-6.729-15-15S236.729,252.5,245,252.5
	z M285,72.5c-8.271,0-15-6.729-15-15s6.729-15,15-15c52.383,0,95,42.617,95,95v27.58c-4.695-1.665-9.742-2.58-15-2.58
	s-10.305,0.915-15,2.58V137.5C350,101.659,320.841,72.5,285,72.5z M365,192.5c8.271,0,15,6.729,15,15s-6.729,15-15,15
	s-15-6.729-15-15S356.729,192.5,365,192.5z"/>
<g>
</g>
<g>
</g>
<g>
</g>
<g>
</g>
<g>
</g>
<g>
</g>
<g>
</g>
<g>
</g>
<g>
</g>
<g>
</g>
<g>
</g>
<g>
</g>
<g>
</g>
<g>
</g>
<g>
</g>
</svg>
