<?xml version="1.0" encoding="utf-8"?>
<!-- Generator: Adobe Illustrator 22.0.1, SVG Export Plug-In . SVG Version: 6.00 Build 0)  -->
<svg version="1.1" id="Layer_1" xmlns="http://www.w3.org/2000/svg" xmlns:xlink="http://www.w3.org/1999/xlink" x="0px" y="0px"
	 viewBox="0 0 100 100" style="enable-background:new 0 0 100 100;" xml:space="preserve">
<style type="text/css">
	.st0{fill:#000000;}
</style>
<g>
	<path class="st0" d="M33.8,31.1c4.4-3.7,10-6,16.2-6c6.2,0,11.8,2.3,16.2,6l17.8-17.8C75,5,63.1,0,50,0C36.9,0,25,5,16.1,13.3
		L33.8,31.1z"/>
	<path class="st0" d="M89.6,19.5l-18,18c2.1,3.7,3.4,7.9,3.4,12.5c0,6.2-2.3,11.8-6,16.2l17.8,17.8C95,75,100,63.1,100,50
		C100,38.5,96.1,27.9,89.6,19.5z"/>
	<path class="st0" d="M31.1,66.2c-3.7-4.4-6-10-6-16.2c0-4.6,1.2-8.8,3.4-12.5l-18-18C3.9,27.9,0,38.5,0,50c0,13.1,5,25,13.3,33.9
		L31.1,66.2z"/>
	<path class="st0" d="M62.5,71.5c-3.7,2.1-7.9,3.4-12.5,3.4c-4.6,0-8.8-1.2-12.5-3.4l-18,18c8.4,6.5,19,10.4,30.5,10.4
		c11.5,0,22.1-3.9,30.5-10.4L62.5,71.5z"/>
</g>
</svg>
