<?xml version="1.0" encoding="utf-8"?>
<!-- Generator: Adobe Illustrator 22.0.1, SVG Export Plug-In . SVG Version: 6.00 Build 0)  -->
<svg version="1.1" id="Layer_1" xmlns="http://www.w3.org/2000/svg" xmlns:xlink="http://www.w3.org/1999/xlink" x="0px" y="0px"
	 viewBox="0 0 100 97.8" style="enable-background:new 0 0 100 97.8;" xml:space="preserve">
<style type="text/css">
	.st0{fill:#000000;}
</style>
<g>
	<polygon class="st0" points="100,13.7 91.4,12.3 94.1,3.8 86.6,8.2 83.5,0 83.5,0 80.3,8.2 72.9,3.8 75.6,12.3 67,13.7 74.5,18.1
		68.9,25 77.5,23.6 77.7,32.4 83.5,25.6 83.5,25.6 89.3,32.4 89.5,23.6 98.1,25 92.4,18.1 	"/>
	<path class="st0" d="M88.6,72.2c0-0.2,0-0.3,0-0.5c0-0.7-0.1-1.3-0.3-2c-1.2-4.1-5.2-7.3-9.8-7.3c0,0,0,0-0.1,0
		c-2.7-0.2-6.6,0-9.3,2.8c-4.7,4.9-5,14.7-4.9,18.7c-6.3-0.8-18.7-3.7-24.6-13.9c5.4-0.4,10.6-1.6,12.5-4.2c2.9-4.1-0.6-7.1-2.4-6.9
		c-5.4,0.6-9.8,0.4-13.3,0c-0.1-0.8-0.1-1.6-0.1-2.4c0-1.2,0.1-1.8,0.2-2c0.6-0.3,2.3-0.5,5.1-0.6c15.9-0.8,18.8-23.6,18.9-24.6
		l0.2-2l-1.5-1.3c-0.5-0.4-11.4-9.3-25.4-9.3c-4.9,0-9.5,1.1-13.9,3.3c-1.9,1-3.8,2.2-5.5,3.6c-0.2-0.1-0.4-0.2-0.6-0.2
		c-2.5-0.6-5.1,0.9-5.7,3.4c-0.3,1.1-0.1,2.3,0.4,3.2c-4.6,6.3-7.6,14.3-8.2,22.7c-0.9,12.9,4,24.5,13.6,32.3
		c5.8,5.5,13.2,9.5,21.4,11.1c4.1,1,8.6,1.6,13.2,1.6c12.6,0,23.8-4.1,31.1-10.4C84.1,83.8,88.6,77.7,88.6,72.2z M33.6,27.5
		c0.5-1.8,2.3-2.9,4.1-2.5c1.8,0.5,2.9,2.3,2.5,4.1c-0.5,1.8-2.3,2.9-4.1,2.5C34.3,31.1,33.2,29.3,33.6,27.5z"/>
</g>
</svg>
