<?xml version="1.0" encoding="utf-8"?>
<!-- Generator: Adobe Illustrator 22.0.1, SVG Export Plug-In . SVG Version: 6.00 Build 0)  -->
<svg version="1.1" id="Layer_1" xmlns="http://www.w3.org/2000/svg" xmlns:xlink="http://www.w3.org/1999/xlink" x="0px" y="0px"
	 viewBox="0 0 100 91.5" style="enable-background:new 0 0 100 91.5;" xml:space="preserve">
<style type="text/css">
	.st0{fill:#000000;}
</style>
<path class="st0" d="M100,62.5c0-0.2,0-0.3,0-0.5c0-0.7-0.1-1.5-0.4-2.2c-1.3-4.7-5.9-8.2-11-8.2c0,0-0.1,0-0.1,0
	c-3.1-0.3-7.4,0-10.5,3.2c-5.3,5.5-5.6,16.6-5.5,21.1c-7.1-0.9-21.1-4.2-27.8-15.7c6.1-0.4,12-1.8,14.1-4.7c3.2-4.6-0.7-8-2.8-7.8
	c-6.1,0.6-11.1,0.5-15,0c-0.1-0.9-0.1-1.8-0.1-2.7c0-1.4,0.1-2,0.2-2.3c0.7-0.3,2.6-0.5,5.8-0.7C64.8,41,68,15.3,68.1,14.2l0.3-2.2
	l-1.7-1.4C66.2,10.1,53.8,0,38,0c-5.5,0-10.8,1.2-15.7,3.7c-2.2,1.1-4.3,2.5-6.2,4.1c-0.2-0.1-0.5-0.2-0.7-0.3
	c-2.8-0.7-5.7,1-6.4,3.9c-0.3,1.3-0.1,2.5,0.4,3.6c-5.2,7.1-8.6,16.1-9.3,25.6c-1.1,14.5,4.5,27.6,15.3,36.5
	c6.4,6.1,14.4,10.4,23.4,12.4c4.9,1.3,10.2,2,15.8,2c14.3,0,27-4.6,35.3-11.8C95,75.5,100,68.6,100,62.5z M38,12
	c0.5-2.1,2.6-3.3,4.6-2.8c2.1,0.5,3.3,2.6,2.8,4.6c-0.5,2.1-2.6,3.3-4.6,2.8C38.7,16.2,37.4,14.1,38,12z"/>
</svg>
