<?xml version="1.0" encoding="utf-8"?>
<!-- Generator: Adobe Illustrator 22.0.1, SVG Export Plug-In . SVG Version: 6.00 Build 0)  -->
<svg version="1.1" id="Layer_1" xmlns="http://www.w3.org/2000/svg" xmlns:xlink="http://www.w3.org/1999/xlink" x="0px" y="0px"
	 viewBox="0 0 100 100" style="enable-background:new 0 0 100 100;" xml:space="preserve">
<style type="text/css">
	.st0{fill:#000000;}
</style>
<path class="st0" d="M96.5,46.5H76.7c-0.2-1.2-0.4-2.3-0.7-3.5l18.3-7.6c1.8-0.7,2.6-2.8,1.9-4.6c-0.7-1.8-2.8-2.6-4.6-1.9
	l-18.3,7.6c-0.6-1.1-1.3-2.1-2-3l14-14c1.4-1.4,1.4-3.6,0-4.9c-1.4-1.4-3.6-1.4-4.9,0l-14,14c-0.9-0.7-1.9-1.4-2.9-2l7.6-18.3
	c0.7-1.8-0.1-3.8-1.9-4.6c-1.8-0.7-3.8,0.1-4.6,1.9L57,24c-1.2-0.3-2.3-0.6-3.6-0.7V3.5C53.5,1.6,51.9,0,50,0
	c-1.9,0-3.5,1.6-3.5,3.5v19.8c-1.2,0.2-2.3,0.4-3.4,0.7L35.5,5.7C34.8,3.9,32.7,3,31,3.8c-1.8,0.7-2.6,2.8-1.9,4.5l7.6,18.3
	c-1.1,0.6-2.1,1.3-3,2l-14-14c-1.4-1.4-3.6-1.4-4.9,0c-1.4,1.4-1.4,3.6,0,4.9l14,14c-0.7,0.9-1.4,1.9-2,2.9L8.4,28.9
	c-1.8-0.7-3.8,0.1-4.6,1.9c-0.7,1.8,0.1,3.8,1.9,4.6L24,43c-0.3,1.2-0.6,2.3-0.7,3.6H3.5C1.6,46.5,0,48.1,0,50
	c0,1.9,1.6,3.5,3.5,3.5h19.8c0.2,1.2,0.4,2.3,0.7,3.5L5.7,64.5C3.9,65.2,3,67.3,3.8,69c0.6,1.3,1.9,2.2,3.2,2.2
	c0.4,0,0.9-0.1,1.3-0.3l18.3-7.6c0.6,1.1,1.3,2.1,2,3l-14,14c-1.4,1.4-1.4,3.6,0,4.9c0.7,0.7,1.6,1,2.5,1c0.9,0,1.8-0.3,2.5-1l14-14
	c0.9,0.7,1.9,1.4,2.9,2l-7.6,18.3c-0.7,1.8,0.1,3.8,1.9,4.6c0.4,0.2,0.9,0.3,1.3,0.3c1.4,0,2.7-0.8,3.2-2.1L43,76
	c1.2,0.3,2.3,0.6,3.6,0.7v19.8c0,1.9,1.6,3.5,3.5,3.5c1.9,0,3.5-1.6,3.5-3.5V76.7c1.2-0.2,2.3-0.4,3.4-0.7l7.6,18.3
	c0.6,1.3,1.9,2.2,3.2,2.2c0.4,0,0.9-0.1,1.3-0.3c1.8-0.7,2.6-2.8,1.9-4.5l-7.6-18.3c1.1-0.6,2.1-1.3,3-2l14,14c0.7,0.7,1.6,1,2.5,1
	s1.8-0.3,2.5-1c1.4-1.4,1.4-3.6,0-4.9l-14-14c0.7-0.9,1.4-1.9,2-2.9l18.3,7.6c0.4,0.2,0.9,0.3,1.3,0.3c1.4,0,2.7-0.8,3.2-2.1
	c0.7-1.8-0.1-3.8-1.9-4.6L76,57c0.3-1.2,0.6-2.3,0.7-3.6h19.8c1.9,0,3.5-1.6,3.5-3.5C100,48.1,98.4,46.5,96.5,46.5z"/>
</svg>
