<?xml version="1.0" encoding="utf-8"?>
<!-- Generator: Adobe Illustrator 22.0.1, SVG Export Plug-In . SVG Version: 6.00 Build 0)  -->
<svg version="1.1" id="Layer_1" xmlns="http://www.w3.org/2000/svg" xmlns:xlink="http://www.w3.org/1999/xlink" x="0px" y="0px"
	 viewBox="0 0 100 106.5" style="enable-background:new 0 0 100 106.5;" xml:space="preserve">
<style type="text/css">
	.st0{fill:#000000;}
</style>
<g>
	<path class="st0" d="M70.2,20.8c-2.1,0-3.9,1.7-3.9,3.9c0,2.1,1.7,3.9,3.9,3.9s3.9-1.7,3.9-3.9C74.1,22.5,72.4,20.8,70.2,20.8z"/>
	<path class="st0" d="M29.3,20.8c-2.1,0-3.9,1.7-3.9,3.9c0,2.1,1.7,3.9,3.9,3.9c2.1,0,3.9-1.7,3.9-3.9
		C33.1,22.5,31.4,20.8,29.3,20.8z"/>
	<path class="st0" d="M58.5,34.1c0-0.3,0-0.6-0.2-0.8c-0.7-4.7-5.8-10.3-8.2-10.3c-2.4,0-7.6,5.7-8.2,10.3c-0.2,0.2-0.3,0.5-0.2,0.8
		c0,0.3,0.2,0.5,0.4,0.7l4.9,3.7l-4.5,3.9c-0.9,0.7-1,2-0.2,2.9c0.4,0.5,1,0.7,1.5,0.7c0.5,0,0.9-0.2,1.3-0.5l5.1-4.3l5.1,4.3
		c0.4,0.3,0.8,0.5,1.3,0.5c0.6,0,1.1-0.2,1.5-0.7c0.7-0.9,0.6-2.1-0.2-2.9l-4.5-3.9l4.9-3.7C58.3,34.6,58.4,34.4,58.5,34.1z"/>
	<path class="st0" d="M90.6,38.1c0.5-2,0.8-4,0.8-6.1c0-2-0.3-3.9-0.7-5.8c1.6-1.1,2.7-2.9,2.7-5c0-3.3-2.7-6-6-6
		c-0.7,0-1.3,0.1-1.9,0.4C78.3,6.3,65.3,0,50.4,0C35.5,0,22.4,6.3,15.3,15.6c-0.6-0.2-1.3-0.3-1.9-0.3c-3.3,0-6,2.7-6,6
		c0,2.1,1.1,3.9,2.7,5C9.7,28.1,9.4,30,9.4,32c0,1.9,0.2,3.8,0.6,5.6C3.7,43,0,49.9,0,57.4c0,13,11.1,24.4,29,29.8l0.1-0.3
		c0.5,0.3,1.1,0.4,1.8,0.4c3,0,5.8-1,8.1-2.8c2.5,5.3,6.4,9.2,9,11.4l-9.3,10.5h23.6L52.8,96c2.5-2.2,6.4-6.1,9-11.4
		c2.3,1.8,5.1,2.8,8.1,2.8c0.7,0,1.3-0.2,1.8-0.5l0,0.1C89.2,81.5,100,70.2,100,57.4C100,50.1,96.5,43.5,90.6,38.1z M30.8,79.5
		C30.8,79.5,30.8,79.5,30.8,79.5c-14-4.3-23-12.9-23-22.1c0-4.3,2-8.3,5.4-11.9c3.8,6.3,10.1,11.5,18,14.7c0.4,0.4,0.9,0.8,1.4,1
		c3,1.2,5,4.8,5,9C37.8,75.2,34.6,79.5,30.8,79.5z M47.3,67.3c-1.5,0-2.8-1.2-2.8-2.8c0-1.5,1.3-2.8,2.8-2.8c1.5,0,2.8,1.2,2.8,2.8
		C50.1,66.1,48.8,67.3,47.3,67.3z M57.3,55.5c-3.5-4.7-6.9-7.6-6.9-7.6s-3.4,2.9-6.9,7.6c-15-2.3-26.2-12-26.2-23.6
		c0-13.3,14.9-24.1,33.1-24.1c18.3,0,33.1,10.8,33.1,24.1C83.5,43.5,72.2,53.2,57.3,55.5z M69.5,79.4C65.9,79.1,63,75,63,70.2
		c0-4.1,2.1-7.8,5-9c0.5-0.2,1-0.5,1.4-0.9c7.7-3.2,13.9-8.2,17.8-14.3c3.1,3.5,5,7.3,5,11.4C92.1,66.5,83.2,75.1,69.5,79.4z"/>
</g>
</svg>
